<?xml version="1.0" encoding="UTF-8"?>
<svg width="128pt" height="128pt" version="1.1" viewBox="0 0 128 128" xmlns="http://www.w3.org/2000/svg">
 <path d="m122.21 5.7891c-2.25-2.25-5.8984-2.25-8.1484 0l-70.695 70.695c-0.34375-0.60156-0.92188-1.0078-1.6094-1.1133-0.71875-0.11328-1.4297 0.11719-1.9492 0.63672l-12.672 12.672c-0.75781 0.76172-0.86328 1.9258-0.3125 2.8008l-14.656 14.656c-0.34375 0.34375-0.34375 0.89453 0 1.2383s0.89453 0.34375 1.2383 0l3.6289-3.6289c-1.7344 4.0977-1.0781 8.9648 1.9609 12.484l-2.1094 2.1094-7.2227-7.2227 0.79688-0.79688c0.34375-0.34375 0.34375-0.89453 0-1.2383s-0.89453-0.34375-1.2383 0l-0.80078 0.80078c-0.62891-0.57812-1.6094-0.56641-2.2188 0.042969l-2.5156 2.5156c-0.625 0.625-0.625 1.6406 0 2.2656l9.6055 9.6055c0.3125 0.3125 0.72266 0.46875 1.1328 0.46875 0.41016 0 0.82031-0.15625 1.1328-0.46875l2.5156-2.5156c0.60938-0.60938 0.62109-1.5898 0.042969-2.2188l5.6445-5.6445 1.9883 1.9883c0.17188 0.17188 0.39453 0.25781 0.61719 0.25781 0.22266 0 0.44922-0.085938 0.62109-0.25781l6.3867-6.3867c0.16406-0.16406 0.25391-0.38672 0.25391-0.61719s-0.09375-0.45312-0.25781-0.61719l-1.9883-1.9883 5.125-5.125c0.35938 0.22656 0.76953 0.34766 1.2031 0.34766 0.60156 0 1.1719-0.23438 1.5977-0.66406l2.3164-2.3164c0.34375-0.34375 0.34375-0.89453 0-1.2383s-0.89453-0.34375-1.2383 0l-2.3164 2.3164c-0.19141 0.19141-0.52734 0.19141-0.71875 0l-8.9922-8.9922c-0.19922-0.19922-0.19922-0.51953 0-0.71875l12.672-12.672c0.16016-0.16016 0.34375-0.15625 0.4375-0.14062s0.26953 0.070313 0.37109 0.26953l6.1016 11.879c0.10156 0.19922 0.066406 0.43359-0.09375 0.59375l-3.8906 3.8906c-0.34375 0.34375-0.34375 0.89453 0 1.2383s0.89453 0.34375 1.2383 0l3.8906-3.8906c0.69922-0.69922 0.86328-1.7539 0.41406-2.6289l-0.61719-1.2031 73.328-73.324c2.25-2.2461 2.25-5.8945 0-8.1445zm-107.78 117.17-9.3984-9.3984 2.3086-2.3086 9.3984 9.3984zm15.73-15.426 1.3711 1.3711-5.1484 5.1484-1.3711-1.3711zm82.789-91.254-66.395 66.398-0.83984-1.6367 66-66c0.34375-0.34375 0.89453-0.34375 1.2383 0 0.33984 0.34375 0.33984 0.89844-0.003906 1.2383z"/>
</svg>
