<?xml version="1.0" encoding="UTF-8"?>
<svg width="128pt" height="128pt" version="1.1" viewBox="0 0 128 128" xmlns="http://www.w3.org/2000/svg">
 <path d="m89.957 68.258-26.402-55.367c-0.21094-0.44141-0.65625-0.72656-1.1484-0.73047-0.47266 0.042969-0.94141 0.27344-1.1562 0.71484l-23.68 48c-0.16797 0.33984-0.17578 0.73828-0.023437 1.0859l25.039 56.32c0.19922 0.44922 0.64062 0.74609 1.1328 0.75781h0.035156c0.48047 0 0.92188-0.26953 1.1406-0.69531l25.039-48.953c0.1875-0.35547 0.19531-0.77344 0.023437-1.1328zm-8.793-4.6914-11.562-32.043 16.734 35.09zm-23.207 12.945 4.3594 34.848-20.977-47.18zm4.8516-59.246 1.2031 2.5273 15.84 43.906-20.582 11.336zm1.1875 97.223-4.7578-37.973 20.312-11.188-15.242 48.547zm-2.5273-96.262-3.4648 56.723-17.723-13.148-0.14844-0.33594zm6.3164 88.859 13.227-42.125 6.3125 3.7188 0.050781 0.10937z"/>
</svg>
