<?xml version="1.0" encoding="UTF-8"?>
<svg width="128pt" height="128pt" version="1.1" viewBox="0 0 128 128" xmlns="http://www.w3.org/2000/svg">
 <defs>
  <clipPath id="b">
   <path d="m38 28h45v72h-45z"/>
  </clipPath>
  <clipPath id="a">
   <path d="m49.246 8.9414 69.809 40.305-40.305 69.809-69.809-40.305z"/>
  </clipPath>
 </defs>
 <g clip-path="url(#b)">
  <g clip-path="url(#a)">
   <path d="m74.004 62.793 5.5391-9.5977-2.6172-1.5117 2.5195-4.3633 0.87109 0.50391 2.5195-4.3633-2.1719-1.2539-4.0547-14.16-5.1836 8.9805-0.80469-0.62109-2.5195 4.3633 0.87109 0.50391-9.0703 15.707-0.87109-0.50391-20.656 35.777 12.215 7.0547 20.66-35.777-0.87109-0.50391 1.0078-1.7461zm2.707-30.887 2.457 9.4336-5.9297-3.4219zm-31.082 59.883-2.6172-1.5117 16.625-28.797 2.6172 1.5117zm5.2344 3.0234-2.6172-1.5117 16.625-28.797 2.6172 1.5117zm10.789-36.824 8.5625-14.832 7.8555 4.5352-2.3672 4.0977-5.1836 8.9766-1.0156 1.7578z"/>
  </g>
 </g>
</svg>
