<?xml version="1.0" encoding="UTF-8"?>
<svg width="128pt" height="128pt" version="1.1" viewBox="0 0 128 128" xmlns="http://www.w3.org/2000/svg">
 <defs>
  <clipPath id="b">
   <path d="m46 26h31v76h-31z"/>
  </clipPath>
  <clipPath id="a">
   <path d="m35.5 14.637 77.863 20.863-20.863 77.863-77.863-20.863z"/>
  </clipPath>
 </defs>
 <g clip-path="url(#b)">
  <g clip-path="url(#a)">
   <path d="m73.352 60.246 2.8672-10.707-2.918-0.78125 1.3047-4.8672 0.97266 0.26172 1.3047-4.8672-2.4258-0.64844-7.5781-12.629-2.6836 10.016-0.94141-0.39063-1.3047 4.8672 0.97266 0.26172-4.6953 17.52-0.97266-0.26172-10.691 39.906 13.625 3.6523 10.695-39.906-0.97266-0.26172 0.52344-1.9453zm-5.3789-30.535 4.8125 8.4766-6.6094-1.7695zm-14.527 65.887-2.918-0.78125 8.6055-32.121 2.918 0.78125zm5.8398 1.5625-2.918-0.78125 8.6055-32.117 2.918 0.78125zm0.89062-38.359 4.4336-16.543 8.7578 2.3477-1.2266 4.5703-2.6836 10.012-0.51953 1.9609z"/>
  </g>
 </g>
</svg>
